<svg id="Capa_1" enable-background="new 0 0 512 512" height="512" viewBox="0 0 512 512" width="512" xmlns="http://www.w3.org/2000/svg"><g><g><path clip-rule="evenodd" d="m230.32 504.5c-44.415 0-88.802-16.963-122.669-50.831s-50.801-78.256-50.801-122.643c0-29.991 6.785-60.524 23.177-86.723 24.061-38.487 32.071-58.87 11.888-107.734-4.903-11.86-9.351-12.715 3.335-13.969 38.428-3.763 70.386 20.241 85.694 47.809-13.455-82.989 64.314-49.947 44.986-155.629-1.796-9.778 6.557-7.925 12.201-4.647 132.561 77.287 43.731 115.089 114.829 198.22 33.867 33.868 50.801 78.256 50.801 122.672 0 44.388-16.934 88.776-50.801 122.644s-78.253 50.831-122.64 50.831z" fill="#eb5468" fill-rule="evenodd"/></g><g><path clip-rule="evenodd" d="m354.899 331.254c0-68.82-55.79-124.611-124.579-124.611-68.818 0-124.607 55.791-124.607 124.611 0 68.791 55.79 124.582 124.607 124.582 68.789 0 124.579-55.791 124.579-124.582z" fill="#eff6ff" fill-rule="evenodd"/></g><g><path clip-rule="evenodd" d="m406.812 54.493c-12.23 17.789-40.51 56.789-40.51 78.997 0 28.851 22.065 48.094 44.102 48.094 34.38 0 59.41-40.796 34.979-66.596-13.741-14.511-32.499-31.816-31.558-57.673.228-6.044-3.935-7.298-7.013-2.822z" fill="#ffd772" fill-rule="evenodd"/></g><g><path clip-rule="evenodd" d="m230.32 216.564c44.9 18.816 76.458 63.203 76.458 114.975 0 51.743-31.558 96.131-76.458 114.946-7.441 3.136-15.252 5.531-23.348 7.184 7.555 1.425 15.366 2.167 23.348 2.167 17.817 0 34.779-3.735 50.117-10.491 43.845-19.3 74.462-63.118 74.462-114.091 0-46.098-25.03-86.352-62.232-107.905-18.331-10.605-39.626-16.706-62.346-16.706-8.495 0-16.791.855-24.802 2.48 8.609 1.625 16.904 4.134 24.801 7.441z" fill="#d9eeff" fill-rule="evenodd"/></g><g><path clip-rule="evenodd" d="m230.32 351.58c11.346 0 20.554-9.208 20.554-20.555 0-11.375-9.208-20.583-20.554-20.583-11.375 0-20.583 9.208-20.583 20.583 0 11.347 9.208 20.555 20.583 20.555z" fill="#ffd772" fill-rule="evenodd"/></g><g><path clip-rule="evenodd" d="m352.96 208.353c-71.098-83.131 17.732-120.933-114.829-198.22-5.645-3.278-13.997-5.132-12.201 4.647 4.048 22.151 3.849 38.201 1.112 50.517 33.725 46.925-2.509 83.758 50.658 145.907 2.68 2.708 5.274 5.445 7.754 8.267 2.452 1.226 4.846 2.509 7.212 3.877 37.203 21.552 62.232 61.807 62.232 107.905 0 45.899-24.802 85.982-61.748 107.62-4.704 6.129-9.835 12.031-15.451 17.647-22.578 22.579-49.803 37.631-78.596 45.158 10.32 1.882 20.754 2.822 31.216 2.822 44.387 0 88.773-16.963 122.64-50.831s50.801-78.256 50.801-122.644c.001-44.416-16.932-88.803-50.8-122.672z" fill="#e5384f" fill-rule="evenodd"/></g><g><path clip-rule="evenodd" d="m386.856 84.256c4.647 18.331 18.986 31.844 30.076 43.561 15.736 16.649 10.918 39.541-3.735 53.682 32.926-2.11 55.932-41.423 32.185-66.51-13.741-14.511-32.499-31.816-31.558-57.673.228-6.044-3.934-7.298-7.013-2.822-4.988 7.268-12.628 18.045-19.955 29.762z" fill="#fbba58" fill-rule="evenodd"/></g><g><path d="m281.662 323.525h-24.312c-3.287-11.854-14.156-20.583-27.03-20.583-1.376 0-2.727.104-4.051.296l-20.812-49.96c-1.593-3.824-5.984-5.637-9.808-4.039-3.823 1.593-5.632 5.983-4.039 9.807l20.935 50.255c-6.288 5.154-10.308 12.978-10.308 21.724 0 15.47 12.598 28.055 28.082 28.055 12.872 0 23.739-8.716 27.028-20.555h24.315c4.142 0 7.5-3.357 7.5-7.5s-3.358-7.5-7.5-7.5zm-51.342 20.555c-7.214 0-13.082-5.856-13.082-13.055 0-7.214 5.869-13.083 13.082-13.083 7.198 0 13.054 5.869 13.054 13.083 0 7.199-5.856 13.055-13.054 13.055z"/><path d="m64.35 331.025c0-31.092 7.62-59.704 22.036-82.748 25.03-40.037 33.773-62.974 12.459-114.575-.572-1.383-1.139-2.631-1.671-3.747 37.178-3.072 64.794 21.727 77.213 44.093 1.769 3.187 5.572 4.638 9.014 3.445 3.442-1.194 5.529-4.689 4.946-8.286-5.672-34.981 5.467-45.938 19.57-59.809 16.783-16.509 35.769-35.184 25.899-93.085.175.094.354.193.537.3 73.755 43.001 75.699 72.02 77.95 105.621 1.708 25.49 3.644 54.382 34.956 90.994.128.15.263.295.403.435 11.292 11.267 20.891 24.087 28.53 38.106 1.982 3.636 6.537 4.98 10.174 2.997 3.637-1.982 4.979-6.537 2.998-10.175-8.28-15.196-18.673-29.1-30.894-41.334-27.896-32.721-29.577-57.786-31.201-82.026-2.432-36.289-4.728-70.565-85.373-117.583-3.463-2.012-12.237-6.187-18.867-1.523-2.332 1.641-6.015 5.643-4.478 14.005 9.575 52.35-5.352 67.032-21.154 82.575-11.072 10.891-23.277 22.897-25.224 47.176-6.398-6.793-13.676-12.751-21.499-17.526-17.287-10.552-36.702-15.117-56.162-13.218-5.813.575-11.303 1.117-13.944 5.971-2.453 4.508-.322 8.645 1.558 12.296.864 1.679 1.844 3.581 2.856 6.029 18.907 45.772 12.322 63.086-11.313 100.893-15.91 25.429-24.319 56.793-24.319 90.701 0 4.143 3.358 7.5 7.5 7.5s7.5-3.359 7.5-7.502z"/><path d="m394.276 273.811c-3.967 1.192-6.216 5.374-5.024 9.341 4.651 15.475 7.009 31.583 7.009 47.874 0 44.325-17.261 85.998-48.604 117.341-31.361 31.361-73.032 48.633-117.337 48.633-44.322 0-86.004-17.272-117.368-48.637-23.381-23.354-39.102-52.798-45.464-85.144-.8-4.065-4.749-6.708-8.806-5.912-4.064.8-6.711 4.742-5.912 8.807 6.939 35.282 24.083 67.393 49.578 92.859 34.195 34.195 79.643 53.027 127.972 53.027 48.311 0 93.749-18.832 127.944-53.028 34.176-34.176 52.998-79.615 52.998-127.947 0-17.755-2.572-35.314-7.644-52.19-1.193-3.966-5.375-6.214-9.342-5.024z"/><path d="m230.32 199.142c-72.844 0-132.107 59.265-132.107 132.112 0 72.831 59.263 132.082 132.107 132.082 72.829 0 132.079-59.252 132.079-132.082 0-72.846-59.25-132.112-132.079-132.112zm103.084 139.383h13.763c-1.643 26.68-12.257 50.969-28.861 69.881l-9.787-9.788c-2.929-2.929-7.677-2.93-10.607-.001-2.929 2.929-2.929 7.678 0 10.606l9.802 9.803c-18.893 16.68-43.19 27.366-69.893 29.062v-13.976c0-4.143-3.358-7.5-7.5-7.5s-7.5 3.357-7.5 7.5v13.977c-26.713-1.697-51.018-12.385-69.917-29.067l9.798-9.798c2.929-2.929 2.929-7.677 0-10.606-2.929-2.928-7.678-2.929-10.606.001l-9.784 9.785c-16.606-18.912-27.222-43.2-28.865-69.878h13.763c4.142 0 7.5-3.357 7.5-7.5s-3.358-7.5-7.5-7.5h-13.734c1.743-26.622 12.419-50.842 29.055-69.687l9.565 9.565c1.464 1.465 3.384 2.197 5.303 2.197s3.839-.732 5.303-2.196c2.929-2.93 2.929-7.678 0-10.606l-9.552-9.553c18.864-16.562 43.075-27.167 69.672-28.856v13.52c0 4.143 3.358 7.5 7.5 7.5s7.5-3.357 7.5-7.5v-13.52c26.587 1.69 50.79 12.292 69.648 28.852l-9.557 9.557c-2.929 2.929-2.928 7.678 0 10.606 1.465 1.464 3.384 2.196 5.303 2.196s3.839-.732 5.304-2.197l9.568-9.569c16.634 18.846 27.309 43.067 29.052 69.691h-13.734c-4.142 0-7.5 3.357-7.5 7.5s3.356 7.499 7.498 7.499z"/><path d="m450.828 109.83c-1.073-1.133-2.176-2.282-3.298-3.452-12.639-13.174-26.964-28.105-26.211-48.78.283-7.504-3.672-11.522-7.468-12.781-3.734-1.24-9.167-.463-13.219 5.425 0 .001-.001.001-.001.002-.911 1.325-1.912 2.769-2.983 4.313-18.795 27.114-38.846 57.811-38.846 78.932 0 34.34 26.785 55.594 51.602 55.594 20.678 0 40.134-12.93 48.414-32.175 7.158-16.635 4.171-34.234-7.99-47.078zm-5.788 41.151c-4.948 11.5-17.577 23.103-34.636 23.103-17.603 0-36.602-15.52-36.602-40.594 0-16.724 20.631-47.842 33.087-65.923 3.112 21.36 17.741 36.609 29.817 49.197 1.099 1.146 2.18 2.271 3.23 3.382 8.028 8.475 9.888 19.716 5.104 30.835z"/></g></g></svg>